HIERARCHY
ROOT Hips
{
	OFFSET 0.000000 83.214638 0.000000
	CHANNELS 6 Xposition Yposition Zposition Xrotation Yrotation Zrotation
	JOINT Pelvis
	{
		OFFSET 0.000000 0.000000 0.000000
		CHANNELS 3 Xrotation Yrotation Zrotation
		JOINT LeftUpLeg
		{
			OFFSET 8.479700 -4.795502 -0.379100
			CHANNELS 3 Xrotation Yrotation Zrotation
			JOINT LeftLeg
			{
				OFFSET 0.024144 -32.555107 0.112900
				CHANNELS 3 Xrotation Yrotation Zrotation
				JOINT LeftFoot
				{
					OFFSET -0.024144 -32.638630 -3.012600
					CHANNELS 3 Xrotation Yrotation Zrotation
					JOINT LeftToeBase
					{
						OFFSET 0.970200 -13.225400 11.864200
						CHANNELS 3 Xrotation Yrotation Zrotation
						End Site
						{
							OFFSET 0.000000 12.319262 0.000000
						}
					}
					JOINT LFootTongue
					{
						OFFSET 1.142400 -1.059800 6.665200
						CHANNELS 3 Xrotation Yrotation Zrotation
						End Site
						{
							OFFSET 0.000000 12.319262 0.000000
						}
					}
				}
				JOINT LeftPantLeg
				{
					OFFSET 0.918482 -16.533964 -2.284700
					CHANNELS 3 Xrotation Yrotation Zrotation
					End Site
					{
						OFFSET 0.350399 24.744368 0.000000
					}
				}
			}
		}
		JOINT RightUpLeg
		{
			OFFSET -8.479700 -4.795502 -0.379100
			CHANNELS 3 Xrotation Yrotation Zrotation
			JOINT RightLeg
			{
				OFFSET -0.023144 -32.555092 0.112900
				CHANNELS 3 Xrotation Yrotation Zrotation
				JOINT RightFoot
				{
					OFFSET 0.023144 -32.638641 -3.012700
					CHANNELS 3 Xrotation Yrotation Zrotation
					JOINT RightToeBase
					{
						OFFSET -0.970200 -13.225400 11.864200
						CHANNELS 3 Xrotation Yrotation Zrotation
						End Site
						{
							OFFSET 0.000000 12.319244 0.000000
						}
					}
					JOINT RFootTongue
					{
						OFFSET -1.142200 -1.059800 6.665200
						CHANNELS 3 Xrotation Yrotation Zrotation
						End Site
						{
							OFFSET 0.000000 12.319243 0.000000
						}
					}
				}
				JOINT RightPantLeg
				{
					OFFSET -0.919482 -16.533978 -2.284800
					CHANNELS 3 Xrotation Yrotation Zrotation
					End Site
					{
						OFFSET -0.350400 24.744419 0.000000
					}
				}
			}
		}
	}
	JOINT Spine
	{
		OFFSET 0.000000 7.722000 1.166200
		CHANNELS 3 Xrotation Yrotation Zrotation
		JOINT Spine1
		{
			OFFSET 0.000000 12.024101 0.248800
			CHANNELS 3 Xrotation Yrotation Zrotation
			JOINT Spine2
			{
				OFFSET 0.000000 11.502998 -0.491200
				CHANNELS 3 Xrotation Yrotation Zrotation
				JOINT Neck
				{
					OFFSET 0.000000 18.430702 -3.123100
					CHANNELS 3 Xrotation Yrotation Zrotation
					JOINT Head
					{
						OFFSET 0.000000 9.051102 1.034000
						CHANNELS 3 Xrotation Yrotation Zrotation
						JOINT HairB
						{
							OFFSET 0.208400 24.786102 24.822300
							CHANNELS 3 Xrotation Yrotation Zrotation
							End Site
							{
								OFFSET 0.000000 32.263779 0.000000
							}
						}
						JOINT HairA
						{
							OFFSET -7.081100 24.428299 23.196600
							CHANNELS 3 Xrotation Yrotation Zrotation
							End Site
							{
								OFFSET 0.000000 32.263779 0.000000
							}
						}
						JOINT Hat
						{
							OFFSET 16.728800 15.048294 -15.439601
							CHANNELS 3 Xrotation Yrotation Zrotation
							End Site
							{
								OFFSET 0.000000 32.263779 0.000000
							}
						}
					}
				}
				JOINT LeftShoulder
				{
					OFFSET 6.197800 13.665199 -4.064700
					CHANNELS 3 Xrotation Yrotation Zrotation
					JOINT LeftArm
					{
						OFFSET 7.778100 -0.187103 -1.709300
						CHANNELS 3 Xrotation Yrotation Zrotation
						JOINT LeftForeArm
						{
							OFFSET 22.049376 0.000000 0.000000
							CHANNELS 3 Xrotation Yrotation Zrotation
							JOINT LeftHand
							{
								OFFSET 23.009392 0.000000 0.000000
								CHANNELS 3 Xrotation Yrotation Zrotation
								JOINT LeftHandThumb1
								{
									OFFSET 3.507191 -2.063065 3.133727
									CHANNELS 3 Xrotation Yrotation Zrotation
									JOINT LeftHandThumb2
									{
										OFFSET 3.101337 -1.790558 1.790558
										CHANNELS 3 Xrotation Yrotation Zrotation
										JOINT LeftHandThumb3
										{
											OFFSET 3.058640 -1.765907 1.765906
											CHANNELS 3 Xrotation Yrotation Zrotation
											End Site
											{
												OFFSET -0.415260 3.926476 -0.049563
											}
										}
									}
								}
								JOINT LeftHandIndex1
								{
									OFFSET 11.334419 -0.901459 3.706815
									CHANNELS 3 Xrotation Yrotation Zrotation
									JOINT LeftHandIndex2
									{
										OFFSET 3.283112 0.000000 0.000000
										CHANNELS 3 Xrotation Yrotation Zrotation
										JOINT LeftHandIndex3
										{
											OFFSET 3.323853 0.000000 0.000000
											CHANNELS 3 Xrotation Yrotation Zrotation
											End Site
											{
												OFFSET -1.135597 3.097809 0.402452
											}
										}
									}
								}
								JOINT LeftHandMiddle1
								{
									OFFSET 11.335861 0.000000 0.000000
									CHANNELS 3 Xrotation Yrotation Zrotation
									JOINT LeftHandMiddle2
									{
										OFFSET 3.410492 0.000000 0.000000
										CHANNELS 3 Xrotation Yrotation Zrotation
										JOINT LeftHandMiddle3
										{
											OFFSET 3.312172 0.000000 0.000000
											CHANNELS 3 Xrotation Yrotation Zrotation
											End Site
											{
												OFFSET -1.150200 3.080154 0.400270
											}
										}
									}
								}
								JOINT LeftHandRing1
								{
									OFFSET 11.514786 -0.013176 -3.003090
									CHANNELS 3 Xrotation Yrotation Zrotation
									JOINT LeftHandRing2
									{
										OFFSET 3.053307 0.000000 0.000000
										CHANNELS 3 Xrotation Yrotation Zrotation
										JOINT LeftHandRing3
										{
											OFFSET 3.295807 0.000000 0.000000
											CHANNELS 3 Xrotation Yrotation Zrotation
											End Site
											{
												OFFSET -1.281006 3.013344 0.375733
											}
										}
									}
								}
								JOINT LeftHandPinky1
								{
									OFFSET 10.518692 -0.960396 -5.730441
									CHANNELS 3 Xrotation Yrotation Zrotation
									JOINT LeftHandPinky2
									{
										OFFSET 2.861649 0.000000 0.000000
										CHANNELS 3 Xrotation Yrotation Zrotation
										JOINT LeftHandPinky3
										{
											OFFSET 2.863380 0.000000 0.000000
											CHANNELS 3 Xrotation Yrotation Zrotation
											End Site
											{
												OFFSET -0.843597 2.711159 0.369971
											}
										}
									}
								}
							}
							JOINT LSleeve
							{
								OFFSET 6.676277 -0.344902 -1.011730
								CHANNELS 3 Xrotation Yrotation Zrotation
								End Site
								{
									OFFSET 0.000000 14.885353 0.000000
								}
							}
						}
					}
				}
				JOINT RightShoulder
				{
					OFFSET -6.197800 13.665199 -4.064700
					CHANNELS 3 Xrotation Yrotation Zrotation
					JOINT RightArm
					{
						OFFSET -7.778100 -0.187103 -1.709300
						CHANNELS 3 Xrotation Yrotation Zrotation
						JOINT RightForeArm
						{
							OFFSET -22.049376 0.000000 0.000000
							CHANNELS 3 Xrotation Yrotation Zrotation
							JOINT RightHand
							{
								OFFSET -23.009392 0.000000 0.000000
								CHANNELS 3 Xrotation Yrotation Zrotation
								JOINT RightHandThumb1
								{
									OFFSET -3.507191 -2.063065 3.133727
									CHANNELS 3 Xrotation Yrotation Zrotation
									JOINT RightHandThumb2
									{
										OFFSET -3.101337 -1.790558 1.790558
										CHANNELS 3 Xrotation Yrotation Zrotation
										JOINT RightHandThumb3
										{
											OFFSET -3.058640 -1.765907 1.765906
											CHANNELS 3 Xrotation Yrotation Zrotation
											End Site
											{
												OFFSET 0.415260 3.926476 -0.049563
											}
										}
									}
								}
								JOINT RightHandIndex1
								{
									OFFSET -11.334419 -0.901459 3.706815
									CHANNELS 3 Xrotation Yrotation Zrotation
									JOINT RightHandIndex2
									{
										OFFSET -3.283112 0.000000 0.000000
										CHANNELS 3 Xrotation Yrotation Zrotation
										JOINT RightHandIndex3
										{
											OFFSET -3.323853 0.000000 0.000000
											CHANNELS 3 Xrotation Yrotation Zrotation
											End Site
											{
												OFFSET 1.135597 3.097809 0.402452
											}
										}
									}
								}
								JOINT RightHandMiddle1
								{
									OFFSET -11.335861 0.000000 0.000000
									CHANNELS 3 Xrotation Yrotation Zrotation
									JOINT RightHandMiddle2
									{
										OFFSET -3.410492 0.000000 0.000000
										CHANNELS 3 Xrotation Yrotation Zrotation
										JOINT RightHandMiddle3
										{
											OFFSET -3.312172 0.000000 0.000000
											CHANNELS 3 Xrotation Yrotation Zrotation
											End Site
											{
												OFFSET 1.150200 3.080154 0.400270
											}
										}
									}
								}
								JOINT RightHandRing1
								{
									OFFSET -11.514786 -0.013176 -3.003090
									CHANNELS 3 Xrotation Yrotation Zrotation
									JOINT RightHandRing2
									{
										OFFSET -3.053307 0.000000 0.000000
										CHANNELS 3 Xrotation Yrotation Zrotation
										JOINT RightHandRing3
										{
											OFFSET -3.295807 0.000000 0.000000
											CHANNELS 3 Xrotation Yrotation Zrotation
											End Site
											{
												OFFSET 1.281006 3.013344 0.375733
											}
										}
									}
								}
								JOINT RightHandPinky1
								{
									OFFSET -10.518692 -0.960396 -5.730441
									CHANNELS 3 Xrotation Yrotation Zrotation
									JOINT RightHandPinky2
									{
										OFFSET -2.861649 0.000000 0.000000
										CHANNELS 3 Xrotation Yrotation Zrotation
										JOINT RightHandPinky3
										{
											OFFSET -2.863380 0.000000 0.000000
											CHANNELS 3 Xrotation Yrotation Zrotation
											End Site
											{
												OFFSET 0.843597 2.711159 0.369971
											}
										}
									}
								}
							}
							JOINT RSleeve
							{
								OFFSET -6.676277 -0.344902 -1.011730
								CHANNELS 3 Xrotation Yrotation Zrotation
								End Site
								{
									OFFSET 0.000000 14.885353 0.000000
								}
							}
						}
					}
				}
				JOINT Backpack
				{
					OFFSET 0.000000 -2.471497 36.677502
					CHANNELS 3 Xrotation Yrotation Zrotation
					End Site
					{
						OFFSET 0.000000 20.427315 0.000000
					}
				}
				JOINT Hood
				{
					OFFSET 0.000000 18.754097 -10.431000
					CHANNELS 3 Xrotation Yrotation Zrotation
					JOINT Hood1
					{
						OFFSET 0.000000 -5.011002 -7.685901
						CHANNELS 3 Xrotation Yrotation Zrotation
						End Site
						{
							OFFSET 0.000000 9.175140 0.000000
						}
					}
				}
				JOINT LHoodieString
				{
					OFFSET 5.250500 16.397697 3.089900
					CHANNELS 3 Xrotation Yrotation Zrotation
					JOINT LHoodieString1
					{
						OFFSET 0.257700 -6.364304 3.694600
						CHANNELS 3 Xrotation Yrotation Zrotation
						JOINT LHoodieString2
						{
							OFFSET 0.000000 -9.643799 2.679100
							CHANNELS 3 Xrotation Yrotation Zrotation
							End Site
							{
								OFFSET 0.000000 10.009018 0.000000
							}
						}
					}
				}
				JOINT RHoodieString
				{
					OFFSET -5.250500 16.397697 3.089900
					CHANNELS 3 Xrotation Yrotation Zrotation
					JOINT RHoodieString1
					{
						OFFSET -0.257700 -6.364304 3.694600
						CHANNELS 3 Xrotation Yrotation Zrotation
						JOINT RHoodieString2
						{
							OFFSET 0.000000 -9.643799 2.679100
							CHANNELS 3 Xrotation Yrotation Zrotation
							End Site
							{
								OFFSET 0.000000 10.009018 0.000000
							}
						}
					}
				}
			}
			JOINT LBackpack_Strap
			{
				OFFSET 15.223200 -7.719803 -6.610900
				CHANNELS 3 Xrotation Yrotation Zrotation
				End Site
				{
					OFFSET 0.000000 16.040596 0.000000
				}
			}
			JOINT RBackpack_Strap
			{
				OFFSET -15.223000 -7.719803 -6.610900
				CHANNELS 3 Xrotation Yrotation Zrotation
				End Site
				{
					OFFSET 0.000000 16.040596 0.000000
				}
			}
		}
	}
	JOINT BoyFacialAnim_Joint
	{
		OFFSET 1.000000 -82.208099 -1.550900
		CHANNELS 3 Xrotation Yrotation Zrotation
		End Site
		{
			OFFSET 0.000000 30.012791 0.000000
		}
	}
}
MOTION
Frames: 4
Frame Time: 0.033333
1.469151 82.290939 1.534404 -1.759017 -8.249912 8.811835 -0.000000 0.000000 -0.000000 -48.533480 22.632021 19.198453 79.840513 9.702939 1.211589 72.328520 19.224257 1.863880 -0.000000 -0.000001 0.000002 -0.000000 -0.000001 0.000002 0.000001 0.000000 0.000000 -19.056718 -9.325384 -0.033630 38.910447 -11.922338 -1.010664 -6.103561 -6.641652 -17.425489 -0.000001 0.000000 -0.000001 -0.000001 0.000000 -0.000001 -0.000001 0.000000 -0.000001 -1.673341 -0.899862 -9.244495 -2.906646 -4.077004 -3.844216 -3.076356 -3.973083 -3.828324 2.989068 4.576494 1.628248 11.726698 24.311766 1.595092 0.000000 -0.000000 -0.000000 0.000000 -0.000000 -0.000000 0.000000 -0.000000 -0.000000 -2.316303 8.243028 17.993949 -73.224095 -64.845679 -20.685431 0.000004 -46.582604 0.000015 -39.511767 -23.370042 -21.164574 -1.540034 3.690176 6.142343 3.946762 7.971389 0.752854 -0.000002 -0.000000 0.000003 -0.000009 -0.000003 0.000001 0.000002 -0.000003 -0.000067 0.000001 0.000000 -0.000002 -0.000003 -0.001929 0.015982 0.000012 0.001931 -0.015991 0.000004 0.000000 -0.000001 0.000001 -0.000005 -0.000008 -0.000002 -0.000001 0.000010 -0.000003 -0.000001 -0.000000 -0.018078 4.054253 0.511059 -0.018091 -4.054257 -0.511049 0.000001 0.000000 0.000002 0.000002 -0.000003 0.000001 -0.706726 -3.590573 -11.254110 -35.551159 -16.249227 -5.351624 0.000001 8.066038 -0.000003 29.857499 -11.684374 13.904151 -1.849258 -3.581795 -6.586135 4.645037 -8.656779 -0.231315 -0.000001 0.000002 0.000000 0.000000 -0.000004 -0.000001 0.000006 0.000015 0.000008 0.000001 -0.000001 0.000003 0.000003 -0.000000 0.000003 0.000002 0.000001 0.000002 0.000003 0.000004 -0.000001 -0.000003 -0.000003 -0.000002 0.000004 0.000009 0.000002 0.000000 0.000002 0.000003 0.000000 -0.000002 -0.000003 -0.000002 0.000004 -0.000003 -0.000003 0.000000 -0.000003 0.000002 -0.000001 -0.000001 0.000001 -0.000001 -0.000000 0.000001 -0.000001 -0.000000 0.000001 -0.000001 -0.000000 0.000001 -0.000001 -0.000000 0.000001 -0.000001 -0.000000 0.000001 0.000001 -0.000000 0.000001 -0.000001 -0.000000 0.000001 -0.000001 -0.000000 0.000001 0.000001 -0.000000 -0.000000 -0.000000 -0.000000 -0.000000 -0.000000 -0.000000 -0.000000 0.000000 -0.000000 
0.886913 83.573799 2.571824 -2.449555 -11.232150 10.986265 0.000000 -0.000000 -0.000000 -55.299319 24.131555 25.135031 84.556588 9.523372 1.195414 73.877846 18.284662 0.276977 -0.000001 -0.000003 0.000001 -0.000001 -0.000003 0.000001 0.000001 0.000001 0.000001 -18.891659 -8.707246 -2.955923 39.230834 -11.108425 -0.849163 1.561505 -5.886910 -16.145310 -0.000001 0.000002 -0.000001 -0.000001 0.000002 -0.000001 0.000003 0.000000 0.000002 -1.274446 -0.384286 -12.499985 -2.541273 -2.917666 -6.526448 -2.678592 -2.761834 -6.524056 3.554732 4.552384 2.562570 10.709084 25.432867 2.287218 0.000001 -0.000000 0.000000 0.000001 -0.000000 0.000000 0.000001 -0.000000 0.000000 -2.397221 8.467823 18.167012 -67.609959 -61.276878 -8.264636 0.000020 -34.563892 0.000010 -56.721009 -24.345523 -21.016219 -1.540053 3.690185 6.142375 3.946767 7.971390 0.752851 -0.000001 0.000000 -0.000000 0.000002 0.000006 0.000005 0.000002 -0.000000 -0.000067 0.000000 0.000001 -0.000002 0.000007 -0.001931 0.015992 0.000011 0.001930 -0.015988 -0.000000 -0.000001 -0.000002 0.000001 0.000003 0.000014 -0.000003 -0.000000 0.000010 0.000003 0.000000 -0.000002 -0.018081 4.054257 0.511074 -0.018089 -4.054259 -0.511054 -0.000000 0.000002 0.000002 0.000000 0.000001 -0.000001 -0.876970 -3.659483 -13.786628 -41.374103 -6.877559 -9.272684 0.000003 4.926580 -0.000011 33.639303 -5.720000 6.912619 -1.849255 -3.581792 -6.586143 4.645038 -8.656780 -0.231319 -0.000001 0.000001 0.000004 0.000003 0.000004 -0.000001 0.000006 0.000005 0.000009 -0.000003 0.000001 0.000002 0.000006 0.000000 0.000009 0.000000 -0.000001 -0.000000 -0.000002 0.000002 0.000004 0.000005 0.000009 0.000006 -0.000000 0.000005 0.000001 0.000001 -0.000001 0.000002 0.000003 0.000003 -0.000002 -0.000001 0.000005 -0.000003 0.000002 0.000001 -0.000001 -0.000002 0.000001 0.000003 -0.000000 0.000000 -0.000001 -0.000000 0.000000 -0.000001 -0.000000 0.000000 -0.000001 -0.000000 0.000000 -0.000001 -0.000000 0.000000 -0.000000 0.000001 0.000002 0.000000 -0.000000 0.000000 -0.000001 -0.000000 0.000000 -0.000000 0.000001 0.000002 0.000000 -0.000000 0.000000 0.000001 -0.000000 0.000000 0.000001 0.000000 -0.000000 -0.000000 
0.509481 84.841530 3.548719 -2.931254 -14.030168 12.949319 -0.000000 -0.000000 -0.000000 -61.582898 25.524577 30.733871 88.643028 9.244294 1.150962 75.244123 17.027351 -1.389330 0.000001 0.000000 -0.000001 0.000001 0.000000 -0.000000 -0.000001 -0.000005 0.000002 -18.993839 -8.255247 -6.123971 38.907592 -10.164006 -0.663774 10.473299 -5.089999 -14.388217 -0.000000 0.000003 0.000001 -0.000000 0.000003 0.000001 0.000001 0.000001 0.000000 -0.824503 -0.038064 -15.145239 -2.123877 -1.839032 -8.670368 -2.212154 -1.620715 -8.676799 3.981106 4.606667 3.179041 9.665302 26.532375 2.370830 0.000000 0.000001 -0.000000 0.000000 0.000001 -0.000000 0.000000 0.000001 -0.000000 -2.438941 8.682244 17.979549 -63.708364 -57.040938 1.720360 0.000014 -22.694162 0.000004 -76.556886 -26.288606 -24.472071 -1.540043 3.690180 6.142346 3.946763 7.971389 0.752853 -0.000001 -0.000000 -0.000001 0.000002 0.000001 -0.000006 0.000003 -0.000002 -0.000065 -0.000001 0.000001 -0.000002 0.000003 -0.001929 0.015983 0.000015 0.001930 -0.015988 0.000001 -0.000000 0.000000 -0.000000 -0.000002 -0.000013 -0.000004 -0.000001 0.000008 -0.000000 -0.000001 -0.000004 -0.018083 4.054253 0.511063 -0.018092 -4.054259 -0.511054 0.000002 0.000001 0.000002 0.000000 0.000000 -0.000001 -1.021285 -3.637766 -16.057227 -46.551445 4.479799 -12.464292 0.000008 2.195285 -0.000004 38.551124 -1.197844 0.340429 -1.849254 -3.581785 -6.586128 4.645037 -8.656773 -0.231316 0.000000 -0.000003 -0.000002 -0.000003 0.000001 0.000004 0.000007 0.000013 0.000004 -0.000000 -0.000001 0.000002 0.000002 0.000001 0.000013 0.000003 0.000001 -0.000001 0.000003 0.000000 0.000001 0.000002 0.000002 0.000011 0.000000 0.000003 0.000001 0.000001 -0.000003 0.000003 -0.000000 0.000001 0.000012 0.000000 0.000001 0.000000 0.000001 -0.000001 -0.000002 0.000003 0.000000 -0.000002 -0.000000 0.000001 -0.000000 -0.000000 0.000001 -0.000000 -0.000000 0.000001 -0.000000 -0.000000 0.000001 -0.000000 -0.000000 0.000001 -0.000000 -0.000000 0.000001 -0.000000 -0.000000 0.000001 -0.000000 -0.000000 0.000001 -0.000000 -0.000000 0.000001 -0.000000 0.000000 -0.000003 -0.000000 0.000000 -0.000003 -0.000000 -0.000000 -0.000000 -0.000000 
0.335791 85.848740 4.549974 -3.178722 -16.359994 14.684217 -0.000001 -0.000001 0.000001 -67.766883 27.105852 35.523862 92.957420 8.793526 1.051208 76.298206 15.727718 -2.187700 0.000001 -0.000002 0.000000 0.000001 -0.000002 -0.000002 -0.000002 0.000000 -0.000001 -19.354326 -7.987905 -9.156502 38.064142 -9.331359 -0.498317 19.600618 -4.466168 -12.973219 0.000002 0.000002 -0.000002 0.000002 0.000002 -0.000002 -0.000002 -0.000001 0.000000 -0.437339 0.078447 -16.943410 -1.783617 -1.039989 -9.991709 -1.827535 -0.762668 -10.002993 4.343954 4.813390 3.167606 8.928959 27.605902 2.011284 -0.000000 0.000000 -0.000001 -0.000000 0.000000 -0.000001 -0.000000 0.000000 -0.000001 -2.461920 8.946140 17.519608 -61.516420 -51.330757 9.159244 -0.000003 -11.814305 0.000003 -97.364101 -25.701694 -32.132096 -1.540044 3.690182 6.142360 3.946763 7.971390 0.752853 -0.000000 0.000000 0.000001 0.000003 0.000001 0.000000 0.000003 -0.000002 -0.000065 0.000000 -0.000000 -0.000004 0.000004 -0.001930 0.015988 0.000010 0.001931 -0.015990 0.000000 -0.000002 -0.000000 0.000001 -0.000003 0.000015 -0.000006 -0.000003 0.000010 0.000001 -0.000003 0.000001 -0.018087 4.054255 0.511090 -0.018093 -4.054259 -0.511047 -0.000000 0.000001 -0.000000 -0.000000 -0.000001 -0.000001 -1.107156 -3.367680 -18.298343 -50.413606 16.745448 -15.177645 0.000003 0.261132 0.000010 43.579301 1.330597 -5.079155 -1.849253 -3.581789 -6.586155 4.645032 -8.656773 -0.231317 0.000001 0.000002 -0.000002 0.000001 -0.000004 -0.000009 0.000005 0.000010 0.000008 -0.000001 -0.000000 0.000002 0.000001 -0.000004 -0.000005 0.000001 0.000001 0.000002 0.000002 0.000000 -0.000000 0.000003 -0.000002 -0.000002 0.000004 0.000005 -0.000001 0.000000 -0.000001 0.000000 -0.000001 -0.000005 -0.000019 -0.000001 0.000003 -0.000001 0.000001 0.000001 0.000000 -0.000002 -0.000000 -0.000001 -0.000000 -0.000001 -0.000000 -0.000000 -0.000001 -0.000000 -0.000000 -0.000001 -0.000000 -0.000000 -0.000001 -0.000000 -0.000000 -0.000001 -0.000000 -0.000000 -0.000001 -0.000000 -0.000000 -0.000001 -0.000000 -0.000000 -0.000001 -0.000000 -0.000000 -0.000001 -0.000000 -0.000000 -0.000001 -0.000000 -0.000000 -0.000001 -0.000000 -0.000001 -0.000001 0.000001 
